<?xml version="1.0" encoding="utf-8"?>
<!-- Generator: Adobe Illustrator 24.1.0, SVG Export Plug-In . SVG Version: 6.00 Build 0)  -->
<svg version="1.1" id="Layer_1" focusable="false" xmlns="http://www.w3.org/2000/svg" xmlns:xlink="http://www.w3.org/1999/xlink"
	 x="0px" y="0px" viewBox="0 0 512 512" style="enable-background:new 0 0 512 512;" xml:space="preserve">
<style type="text/css">
	.st0{fill:#FFFFFF;}
</style>
<path class="st0" d="M462.3,62.7c-54.5-46.4-136-38.7-186.6,13.5L256,96.6l-19.7-20.3C195.5,34.1,113.2,8.7,49.7,62.7
	c-62.8,53.6-66.1,149.8-9.9,207.8l193.5,199.8c6.2,6.4,14.4,9.7,22.6,9.7c8.2,0,16.4-3.2,22.6-9.7L472,270.5
	C528.4,212.5,525.1,116.3,462.3,62.7z M449.2,248.3L256.4,448.1L62.8,248.3c-38.4-39.6-46.4-115.1,7.7-161.2
	c54.8-46.8,119.2-12.9,142.8,11.5l42.7,44.1l42.7-44.1c23.2-24,88.2-58,142.8-11.5C495.5,133.1,487.6,208.6,449.2,248.3L449.2,248.3
	z"/>
</svg>
